<svg width="249" height="200" viewBox="0 0 249 200" fill="none" xmlns="http://www.w3.org/2000/svg">
<g clip-path="url(#clip0_103_464)">
<path opacity="0.1" d="M116.919 200C148.602 200 174.287 194.37 174.287 187.426C174.287 180.481 148.602 174.852 116.919 174.852C85.2364 174.852 59.5522 180.481 59.5522 187.426C59.5522 194.37 85.2364 200 116.919 200Z" fill="#6C63FF"/>
<path opacity="0.1" d="M7.97266 114.425C11.8359 130.223 19.9898 143.878 32.8884 150.498C59.6898 164.252 120.15 157.158 165.271 149.015C188.605 144.803 209.121 133.185 224.024 116.816L7.97266 114.425Z" fill="#6C63FF"/>
<path opacity="0.1" d="M244.579 40.0655H219.822C219.538 40.0894 219.253 40.0541 218.983 39.9621C218.713 39.87 218.466 39.7232 218.256 39.5308C218.046 39.3384 217.879 39.1047 217.764 38.8444C217.649 38.5842 217.59 38.303 217.59 38.0188C217.59 37.7346 217.649 37.4534 217.764 37.1932C217.879 36.9329 218.046 36.6992 218.256 36.5068C218.466 36.3144 218.713 36.1676 218.983 36.0755C219.253 35.9835 219.538 35.9483 219.822 35.9721H224.103C223.822 35.9913 223.54 35.9527 223.274 35.8586C223.008 35.7644 222.765 35.6168 222.559 35.4248C222.353 35.2329 222.188 35.0007 222.076 34.7428C221.963 34.4848 221.905 34.2066 221.905 33.9253C221.905 33.6441 221.963 33.3658 222.076 33.1079C222.188 32.8499 222.353 32.6178 222.559 32.4258C222.765 32.2339 223.008 32.0862 223.274 31.9921C223.54 31.898 223.822 31.8593 224.103 31.8786H221.047C220.763 31.9024 220.477 31.8672 220.207 31.7751C219.937 31.6831 219.69 31.5362 219.48 31.3439C219.27 31.1515 219.103 30.9178 218.988 30.6575C218.874 30.3972 218.814 30.1161 218.814 29.8319C218.814 29.5476 218.874 29.2665 218.988 29.0062C219.103 28.746 219.27 28.5122 219.48 28.3199C219.69 28.1275 219.937 27.9806 220.207 27.8886C220.477 27.7965 220.763 27.7613 221.047 27.7851H233.967C231.098 26.5065 227.759 25.5987 223.889 25.122C188.656 20.7877 176.081 23.6531 171.638 26.6052C166.162 30.246 160.048 32.9236 153.529 34.2143C131.798 38.5124 91.1369 43.6847 54.2909 32.56C35.9766 27.0218 22.3658 36.3742 14.2095 51.992H248.884C248.577 47.4531 247.66 43.2609 245.987 39.5936C245.587 39.9094 245.089 40.0763 244.579 40.0655Z" fill="#6C63FF"/>
<path opacity="0.1" d="M156.016 89.8711L156.337 89.8879L239.269 94.5232C235.275 102.538 230.195 109.967 224.171 116.601L174.432 114.858L167.835 114.617L166.022 114.555L164.897 114.516L157.894 114.275L152.266 114.078L142.574 113.738H142.345L140.343 113.671L133.073 113.416L130.559 113.327H130.492L128.659 113.264L127.232 113.214L123.434 113.079L122.19 113.035H122.084H121.821L120.406 112.985H120.283L117.345 112.881L106.853 112.515H106.718L106.095 112.491L105.508 112.472H105.371L98.7863 112.231L95.3311 112.111L91.393 111.973L90.2364 111.933H90.0891L82.2298 111.656L79.9746 111.576L63.517 110.998L61.6361 110.933L60.7548 110.904L44.4445 110.338L43.9616 110.322L41.2356 110.225L6.838 109.021C5.24648 99.9223 4.92148 90.6478 5.87218 81.4602L46.7504 83.7477L48.7642 83.8489L51.0459 83.9741L65.4535 84.7831L116.864 87.6727L120.351 87.8701L152.636 89.6809L156.016 89.8711Z" fill="#6C63FF"/>
<path opacity="0.1" d="M248.889 52.11L78.1394 56.0903L59.3711 56.5285L11.5945 57.6434C8.69705 64.7564 6.79439 72.7989 5.91309 81.1351H244.743C246.3 76.2457 247.452 71.2373 248.189 66.1602C248.889 61.2625 249.176 56.5237 248.889 52.11ZM54.0833 70.2393H49.8047C50.3611 70.2296 50.8987 70.4399 51.3 70.8244C51.7013 71.2088 51.9337 71.736 51.9464 72.2908C51.9464 72.3342 51.9464 72.3751 51.9464 72.416C51.9232 72.7356 51.8251 73.0453 51.6598 73.3201C51.4946 73.5949 51.2669 73.8271 50.9951 73.998C50.6414 74.2247 50.2299 74.3451 49.8095 74.3448H25.0484C24.7721 74.3542 24.4968 74.3081 24.2388 74.2092C23.9808 74.1103 23.7454 73.9606 23.5466 73.769C23.3479 73.5775 23.1898 73.348 23.0818 73.0943C22.9739 72.8405 22.9182 72.5677 22.9182 72.292C22.9182 72.0164 22.9739 71.7435 23.0818 71.4898C23.1898 71.236 23.3479 71.0066 23.5466 70.815C23.7454 70.6235 23.9808 70.4738 24.2388 70.3748C24.4968 70.2759 24.7721 70.2298 25.0484 70.2393H29.3269C29.0456 70.2585 28.7632 70.2199 28.4975 70.1257C28.2317 70.0316 27.9882 69.884 27.7821 69.692C27.576 69.5001 27.4116 69.2679 27.2992 69.01C27.1869 68.752 27.1289 68.4738 27.1289 68.1925C27.1289 67.9113 27.1869 67.633 27.2992 67.3751C27.4116 67.1171 27.576 66.885 27.7821 66.693C27.9882 66.5011 28.2317 66.3534 28.4975 66.2593C28.7632 66.1652 29.0456 66.1265 29.3269 66.1458H26.2725C25.9885 66.1696 25.7026 66.1344 25.433 66.0423C25.1633 65.9503 24.9157 65.8034 24.7059 65.6111C24.4961 65.4187 24.3286 65.185 24.2141 64.9247C24.0995 64.6644 24.0403 64.3833 24.0403 64.0991C24.0403 63.8148 24.0995 63.5337 24.2141 63.2734C24.3286 63.0132 24.4961 62.7794 24.7059 62.5871C24.9157 62.3947 25.1633 62.2478 25.433 62.1558C25.7026 62.0637 25.9885 62.0285 26.2725 62.0523H51.0264C51.3105 62.0285 51.5963 62.0637 51.866 62.1558C52.1357 62.2478 52.3832 62.3947 52.593 62.5871C52.8029 62.7794 52.9703 63.0132 53.0849 63.2734C53.1995 63.5337 53.2586 63.8148 53.2586 64.0991C53.2586 64.3833 53.1995 64.6644 53.0849 64.9247C52.9703 65.185 52.8029 65.4187 52.593 65.6111C52.3832 65.8034 52.1357 65.9503 51.866 66.0423C51.5963 66.1344 51.3105 66.1696 51.0264 66.1458H54.0833C54.4366 66.1432 54.7854 66.2258 55.0998 66.3866C55.4344 66.5555 55.716 66.8128 55.914 67.1304C56.112 67.448 56.2188 67.8137 56.2226 68.1877C56.2105 68.7423 55.9786 69.2695 55.5777 69.654C55.1768 70.0385 54.6394 70.2489 54.0833 70.2393Z" fill="#6C63FF"/>
<g opacity="0.1">
<path d="M134.881 149.265C134.881 149.265 141.145 134.468 152.841 128.981C157.75 126.676 161.808 122.983 164.295 118.318C165.468 116.108 166.43 113.793 167.166 111.403" stroke="#535461" stroke-width="2" stroke-miterlimit="10"/>
<path d="M174.524 107.902C173.316 109.373 166.995 111.514 166.995 111.514C166.995 111.514 167.753 105.137 168.973 103.669C169.577 102.96 170.43 102.509 171.357 102.41C172.284 102.31 173.214 102.568 173.956 103.132C174.318 103.4 174.621 103.739 174.846 104.128C175.072 104.518 175.216 104.949 175.269 105.395C175.322 105.841 175.283 106.294 175.155 106.725C175.027 107.156 174.812 107.556 174.524 107.902Z" fill="#6C63FF"/>
<path d="M172.358 119.539C170.501 120.136 163.989 118.651 163.989 118.651C163.989 118.651 168.241 113.693 170.098 113.096C170.978 112.801 171.939 112.86 172.777 113.259C173.615 113.658 174.265 114.366 174.589 115.234C174.733 115.662 174.79 116.115 174.756 116.566C174.722 117.017 174.597 117.456 174.388 117.858C174.18 118.26 173.893 118.616 173.544 118.904C173.195 119.193 172.792 119.409 172.358 119.539Z" fill="#6C63FF"/>
<path d="M160.618 133.296C158.701 132.913 153.857 128.48 153.857 128.48C153.857 128.48 160.135 126.257 162.067 126.64C162.515 126.719 162.942 126.886 163.324 127.132C163.706 127.378 164.035 127.697 164.292 128.072C164.549 128.446 164.728 128.868 164.819 129.312C164.91 129.756 164.911 130.214 164.822 130.659C164.414 132.508 162.535 133.676 160.618 133.296Z" fill="#6C63FF"/>
<path d="M149.291 141.784C147.333 141.719 141.782 138.131 141.782 138.131C141.782 138.131 147.577 134.923 149.54 135.001C149.996 135.007 150.447 135.103 150.866 135.283C151.285 135.463 151.664 135.724 151.981 136.051C152.299 136.377 152.549 136.763 152.717 137.186C152.884 137.609 152.967 138.061 152.959 138.516C152.889 140.382 151.247 141.851 149.291 141.784Z" fill="#6C63FF"/>
<path d="M157.926 114.492C158.167 116.353 162.417 121.319 162.417 121.319C162.417 121.319 165.208 115.487 164.959 113.613C164.711 111.74 162.931 110.437 160.99 110.676C160.536 110.722 160.095 110.857 159.695 111.075C159.294 111.293 158.94 111.588 158.655 111.943C158.37 112.298 158.158 112.707 158.033 113.144C157.908 113.582 157.871 114.04 157.926 114.492Z" fill="#6C63FF"/>
<path d="M144.81 124.581C145.629 126.286 151.226 129.809 151.226 129.809C151.226 129.809 152.071 123.44 151.25 121.735C150.832 120.907 150.11 120.271 149.233 119.961C148.357 119.651 147.394 119.691 146.546 120.071C146.129 120.246 145.751 120.503 145.436 120.827C145.121 121.151 144.875 121.535 144.713 121.957C144.551 122.378 144.476 122.828 144.493 123.279C144.509 123.73 144.617 124.173 144.81 124.581Z" fill="#6C63FF"/>
<path d="M133.464 136.065C133.971 137.878 138.868 142.258 138.868 142.258C138.868 142.258 140.821 136.118 140.317 134.312C140.05 133.425 139.446 132.677 138.634 132.227C137.822 131.777 136.867 131.661 135.97 131.904C135.529 132.008 135.113 132.198 134.746 132.465C134.38 132.732 134.071 133.069 133.837 133.457C133.603 133.845 133.45 134.275 133.386 134.723C133.322 135.171 133.349 135.627 133.464 136.065Z" fill="#6C63FF"/>
<path opacity="0.25" d="M174.524 107.902C173.316 109.373 166.995 111.514 166.995 111.514C166.995 111.514 167.753 105.137 168.973 103.669C169.577 102.96 170.43 102.509 171.357 102.41C172.284 102.31 173.214 102.568 173.956 103.132C174.318 103.4 174.621 103.739 174.846 104.128C175.072 104.518 175.216 104.949 175.269 105.395C175.322 105.841 175.283 106.294 175.155 106.725C175.027 107.156 174.812 107.556 174.524 107.902Z" fill="black"/>
<path opacity="0.25" d="M172.358 119.539C170.501 120.136 163.989 118.651 163.989 118.651C163.989 118.651 168.241 113.693 170.098 113.096C170.978 112.801 171.939 112.86 172.777 113.259C173.615 113.658 174.265 114.366 174.589 115.234C174.733 115.662 174.79 116.115 174.756 116.566C174.722 117.017 174.597 117.456 174.388 117.858C174.18 118.26 173.893 118.616 173.544 118.904C173.195 119.193 172.792 119.409 172.358 119.539Z" fill="black"/>
<path opacity="0.25" d="M160.618 133.296C158.701 132.913 153.857 128.48 153.857 128.48C153.857 128.48 160.135 126.257 162.067 126.64C162.515 126.719 162.942 126.886 163.324 127.132C163.706 127.378 164.035 127.697 164.292 128.072C164.549 128.446 164.728 128.868 164.819 129.312C164.91 129.756 164.911 130.214 164.822 130.659C164.414 132.508 162.535 133.676 160.618 133.296Z" fill="black"/>
<path opacity="0.25" d="M149.291 141.784C147.333 141.719 141.782 138.131 141.782 138.131C141.782 138.131 147.577 134.923 149.54 135.001C149.996 135.007 150.447 135.103 150.866 135.283C151.285 135.463 151.664 135.724 151.981 136.051C152.299 136.377 152.549 136.763 152.717 137.186C152.884 137.609 152.967 138.061 152.959 138.516C152.889 140.382 151.247 141.851 149.291 141.784Z" fill="black"/>
<path opacity="0.25" d="M157.926 114.492C158.167 116.353 162.417 121.319 162.417 121.319C162.417 121.319 165.208 115.487 164.959 113.613C164.711 111.74 162.931 110.437 160.99 110.676C160.536 110.722 160.095 110.857 159.695 111.075C159.294 111.293 158.94 111.588 158.655 111.943C158.37 112.298 158.158 112.707 158.033 113.144C157.908 113.582 157.871 114.04 157.926 114.492Z" fill="black"/>
<path opacity="0.25" d="M144.81 124.581C145.629 126.286 151.226 129.809 151.226 129.809C151.226 129.809 152.071 123.44 151.25 121.735C150.832 120.907 150.11 120.271 149.233 119.961C148.357 119.651 147.394 119.691 146.546 120.071C146.129 120.246 145.751 120.503 145.436 120.827C145.121 121.151 144.875 121.535 144.713 121.957C144.551 122.378 144.476 122.828 144.493 123.279C144.509 123.73 144.617 124.173 144.81 124.581Z" fill="black"/>
<path opacity="0.25" d="M133.464 136.065C133.971 137.878 138.868 142.258 138.868 142.258C138.868 142.258 140.821 136.118 140.317 134.312C140.05 133.425 139.446 132.677 138.634 132.227C137.822 131.777 136.867 131.661 135.97 131.904C135.529 132.008 135.113 132.198 134.746 132.465C134.38 132.732 134.071 133.069 133.837 133.457C133.603 133.845 133.45 134.275 133.386 134.723C133.322 135.171 133.349 135.627 133.464 136.065Z" fill="black"/>
</g>
<g opacity="0.1">
<path d="M139.578 126.864C139.578 126.864 140.367 110.912 149.501 102.014C153.336 98.282 155.888 93.4998 156.612 88.3156C156.955 85.8527 157.062 83.3629 156.931 80.8799" stroke="#535461" stroke-width="2" stroke-miterlimit="10"/>
<path d="M162.649 75.2405C162.009 77.0128 156.796 81.0436 156.796 81.0436C156.796 81.0436 155.309 74.783 155.948 73.0108C156.282 72.1431 156.941 71.4389 157.786 71.0474C158.631 70.6559 159.596 70.6079 160.476 70.9135C160.907 71.0494 161.307 71.2703 161.651 71.5632C161.996 71.8561 162.278 72.2149 162.48 72.6185C162.683 73.022 162.802 73.462 162.831 73.9124C162.86 74.3629 162.798 74.8145 162.649 75.2405Z" fill="#6C63FF"/>
<path d="M164.641 86.9069C163.098 88.0603 156.431 88.7273 156.431 88.7273C156.431 88.7273 158.73 82.7075 160.273 81.5445C161.02 80.9893 161.953 80.741 162.879 80.8507C163.804 80.9605 164.653 81.4199 165.249 82.1344C165.535 82.4828 165.747 82.8856 165.872 83.3183C165.996 83.751 166.031 84.2045 165.974 84.6512C165.917 85.0978 165.77 85.5282 165.54 85.916C165.311 86.3038 165.005 86.641 164.641 86.9069Z" fill="#6C63FF"/>
<path d="M158.324 103.613C156.393 103.854 150.284 101.205 150.284 101.205C150.284 101.205 155.441 97.1117 157.382 96.8709C159.324 96.6301 161.108 97.928 161.369 99.7869C161.424 100.238 161.389 100.696 161.266 101.133C161.142 101.571 160.933 101.979 160.649 102.335C160.366 102.691 160.015 102.988 159.615 103.207C159.216 103.426 158.777 103.564 158.324 103.613Z" fill="#6C63FF"/>
<path d="M150.576 115.226C148.705 115.788 142.227 114.167 142.227 114.167C142.227 114.167 146.59 109.298 148.459 108.737C149.344 108.461 150.303 108.539 151.133 108.955C151.962 109.371 152.596 110.093 152.901 110.967C153.037 111.399 153.085 111.853 153.041 112.304C152.997 112.754 152.862 113.191 152.645 113.589C152.428 113.986 152.133 114.336 151.778 114.618C151.422 114.899 151.014 115.106 150.576 115.226Z" fill="#6C63FF"/>
<path d="M149.28 86.7336C150.161 88.4191 155.878 91.7469 155.878 91.7469C155.878 91.7469 156.497 85.3562 155.615 83.6779C155.168 82.8646 154.424 82.2542 153.537 81.9731C152.651 81.6921 151.69 81.7619 150.854 82.1681C150.443 82.3572 150.075 82.6273 149.772 82.962C149.469 83.2967 149.236 83.6891 149.089 84.1157C148.942 84.5423 148.883 84.9941 148.916 85.444C148.949 85.8939 149.072 86.3326 149.28 86.7336Z" fill="#6C63FF"/>
<path d="M140.396 100.423C141.761 101.769 148.258 103.312 148.258 103.312C148.258 103.312 146.853 97.037 145.489 95.6886C144.82 95.0402 143.929 94.6713 142.996 94.6574C142.064 94.6435 141.161 94.9857 140.474 95.6139C140.141 95.9181 139.874 96.2867 139.689 96.6972C139.504 97.1078 139.405 97.5516 139.397 98.0017C139.39 98.4517 139.475 98.8985 139.647 99.3148C139.819 99.731 140.074 100.108 140.396 100.423Z" fill="#6C63FF"/>
<path d="M133.674 114.863C134.78 116.411 140.918 118.985 140.918 118.985C140.918 118.985 140.638 112.573 139.532 111.022C138.981 110.273 138.162 109.763 137.245 109.598C136.328 109.434 135.383 109.626 134.604 110.136C134.222 110.377 133.894 110.694 133.638 111.066C133.383 111.438 133.207 111.858 133.12 112.3C133.033 112.742 133.037 113.198 133.132 113.638C133.228 114.079 133.412 114.496 133.674 114.863Z" fill="#6C63FF"/>
</g>
<path d="M131.369 37.3372L139.977 38.9939C139.977 38.9939 124.96 37.5804 120.467 37.8164C115.974 38.0524 105.842 43.6941 105.842 43.6941C105.842 43.6941 101.069 45.2087 95.3968 50.523C94.0219 51.8133 92.7315 53.1902 91.5335 54.6454C87.0159 60.1066 82.479 68.1105 79.6733 79.6878C79.3835 80.8709 79.1147 82.091 78.8668 83.3479C78.3646 85.8931 77.942 88.5924 77.6185 91.4626C77.4672 92.7886 77.3376 94.1531 77.2298 95.5561C77.1283 96.8917 77.0479 98.2626 76.9883 99.6688C76.9287 101.006 76.8917 102.371 76.8772 103.762C76.8531 105.634 76.8676 107.56 76.9207 109.541C76.9561 110.864 77.0108 112.212 77.0849 113.584C77.0849 113.64 77.0849 113.695 77.0849 113.75C77.5895 123.096 78.7606 131.018 80.3807 137.729C80.5498 138.424 80.7212 139.108 80.8999 139.778C81.7086 142.872 82.7003 145.916 83.8698 148.894C84.0726 149.414 84.2826 149.925 84.4927 150.423C84.9869 151.589 85.4947 152.702 86.0163 153.763C86.4461 154.635 86.8839 155.471 87.3298 156.272C87.4167 156.436 87.5085 156.597 87.6002 156.754C87.8175 157.139 88.0373 157.514 88.2594 157.88C96.0173 170.789 105.523 173.949 109.319 174.714C109.845 174.818 110.261 174.878 110.546 174.914H110.57C110.85 174.945 111.002 174.953 111.002 174.953C111.895 178.353 110.188 179.72 108.131 180.216C107.797 180.297 107.458 180.356 107.117 180.395C105.77 180.525 104.412 180.471 103.08 180.233C103.08 180.233 93.8418 180.64 84.1426 180.871C83.4182 180.891 82.6794 180.905 81.9454 180.922L81.1317 180.936C76.1142 181.037 71.232 181.071 67.6488 180.965C65.9586 180.915 64.563 180.83 63.5972 180.708C56.2643 179.761 58.3939 175.047 60.6418 171.389C62.5735 168.244 61.6076 162.653 58.4494 153.414C57.9375 151.918 57.3677 150.324 56.7399 148.634C53.2654 139.243 53.4682 125.21 54.2843 113.329C54.3906 111.759 54.5089 110.23 54.632 108.754C54.7817 106.943 54.9363 105.212 55.0835 103.589C55.7427 96.3531 57.8772 88.5562 60.1541 82.2836C60.476 81.3782 60.8052 80.5073 61.1416 79.671C62.0775 77.2334 63.1629 74.8554 64.3916 72.5508C64.6548 72.0692 64.9035 71.655 65.1329 71.2986L65.3405 70.9687C65.7389 70.3282 66.1566 69.5962 66.584 68.8016C67.2094 67.6289 67.8589 66.3118 68.4987 64.9489C70.131 61.4719 71.7173 57.6722 72.7604 55.0764C73.5258 53.1958 73.9991 51.9582 73.9991 51.9582C73.9077 51.4512 73.7322 50.9629 73.48 50.5134C69.5032 43.2655 46.4515 39.1022 46.4515 39.1022L34.9004 39.933L11.9284 41.58L37.0107 37.802L40.8957 37.2168C40.8957 37.2168 39.7657 37.0964 38.0972 36.8267C34.7869 36.2922 29.3421 35.1677 26.3553 33.2149C23.9721 31.6521 11.3368 30.9827 0.00292969 30.6986V27.8235L2.11807 29.3261L26.4688 29.6896L14.6375 14.5871L30.2451 30.5035C32.6983 30.9851 37.4187 32.1048 42.8515 33.4219C46.5892 34.3321 50.6673 35.3362 54.5717 36.3114C64.1477 38.7001 72.6807 40.8865 72.6807 40.8865C72.273 34.8895 70.5789 29.0497 67.713 23.7619C64.847 18.4741 60.8761 13.8615 56.0687 10.236L42.7235 0.151611H46.1763C56.0638 6.02695 70.9254 17.7704 70.9254 17.7704C70.9254 17.7704 70.6839 11.269 68.5809 0.151611H73.1347C73.1878 0.722289 73.2578 1.28815 73.3399 1.85401C75.1218 13.9755 76.0104 28.2642 76.0104 28.2642C77.5485 38.6399 81.687 29.798 81.687 29.798C81.3272 17.9992 86.0911 6.99735 89.8965 0.151611H94.9356C92.608 4.88319 93.3831 8.33856 93.3831 8.33856C101.11 2.59325 107.243 0.657275 111.441 0.151611C112.993 -0.0516762 114.564 -0.0516762 116.116 0.151611C116.712 0.221121 117.298 0.355978 117.864 0.553734C102.259 1.27611 91.1448 13.0509 91.1448 13.0509C89.9085 13.3591 86.7841 22.9932 85.4561 35.2255C85.2605 37.0242 85.1036 38.8759 84.9973 40.7637C84.6424 47.0773 85.4368 49.6465 86.4606 50.523C87.2139 51.1659 88.0904 50.8963 88.7278 50.523C89.0482 50.3323 89.3441 50.1035 89.6091 49.8416C92.0382 45.7842 101.264 41.173 109.664 37.6382C111.439 36.8918 113.177 36.1935 114.807 35.5602C117.598 34.46 120.091 32.7229 122.087 30.4883C124.083 28.2536 125.526 25.5835 126.301 22.6922C129.041 12.6704 134.182 13.0605 134.182 13.0605C128.145 17.6596 128.507 31.5751 128.507 31.5751L148.483 27.3636C138.987 29.9015 123.422 35.8106 123.422 35.8106L131.366 37.3372H131.369Z" fill="#DEA3A2"/>
<path d="M153.691 26.2609L148.482 27.3565C150.6 26.8002 152.418 26.3909 153.691 26.2609Z" fill="#DEA3A2"/>
<path opacity="0.1" d="M93.8341 168.533C93.8341 168.533 89.4396 165.937 83.4177 167.235C77.3959 168.533 68.1723 167.845 67.332 167.702L93.8341 168.533Z" fill="black"/>
<path opacity="0.1" d="M74.5588 97.928C74.5588 97.928 73.0956 120.977 75.6985 125.52L74.5588 97.928Z" fill="black"/>
<path opacity="0.1" d="M69.1523 125.525C69.1523 125.525 71.0309 147.115 72.3299 151.333C73.6289 155.552 69.1523 125.525 69.1523 125.525Z" fill="black"/>
<path opacity="0.1" d="M67.3201 72.4448C65.9921 72.9264 60.2937 84.4556 61.4334 87.8556C62.5731 91.2555 67.3201 72.4448 67.3201 72.4448Z" fill="black"/>
<path opacity="0.1" d="M81.7616 60.4823C81.1434 60.764 78.4947 67.4003 79.0235 69.3627C79.5522 71.3252 81.7616 60.4823 81.7616 60.4823Z" fill="black"/>
<path opacity="0.1" d="M57.0991 99.1873C57.7559 105.881 58.1132 110.264 57.6955 115.619C57.3413 119.781 57.4012 123.968 57.8742 128.119L57.0991 99.1873Z" fill="black"/>
<path opacity="0.1" d="M128.43 21.262C127.628 22.1746 127.358 23.4291 127.319 24.6523C127.28 25.8756 127.437 27.0819 127.358 28.2931C127.273 29.5669 126.667 31.0622 125.397 31.2332L128.43 21.262Z" fill="black"/>
<path opacity="0.1" d="M72.5665 45.623C71.8956 45.0718 71.1809 44.5757 70.4296 44.1397C69.7425 43.7211 69.0018 43.3971 68.2276 43.1765C67.0493 42.8659 65.813 42.9092 64.6058 42.784C63.3985 42.6588 62.1236 42.3217 61.2954 41.4283L72.5665 45.623Z" fill="black"/>
<path opacity="0.1" d="M24.4932 30.7275C25.9419 30.7661 27.4244 30.8166 28.7041 31.474C29.3585 31.8087 29.9259 32.2903 30.5657 32.6443C31.3961 33.1042 32.3298 33.347 33.2797 33.3498L24.4932 30.7275Z" fill="black"/>
<path opacity="0.1" d="M44.4396 36.6462C44.1305 36.4054 43.6621 36.5908 43.4062 36.887C43.1502 37.1832 43.0078 37.5636 42.7422 37.8502C42.2182 38.416 41.361 38.4811 40.5884 38.5075L44.4396 36.6462Z" fill="black"/>
<path opacity="0.1" d="M52.666 6.17151L54.0496 6.89389C55.4621 7.63071 56.8842 8.37476 58.1253 9.37164L52.666 6.17151Z" fill="black"/>
<path opacity="0.1" d="M68.4619 19.651C69.3722 19.4367 70.1521 20.4023 70.3163 21.3221C70.4805 22.242 70.2897 23.2051 70.5577 24.0985C70.7871 24.8907 71.3473 25.5432 71.9195 26.1356L68.4619 19.651Z" fill="black"/>
<path opacity="0.1" d="M83.8425 21.3367C84.6683 23.7976 82.9153 26.4848 83.4296 29.03C83.5841 29.8053 83.9463 30.5277 84.1298 31.2959C84.6127 33.3209 83.7845 35.4784 82.4565 37.0749L83.8425 21.3367Z" fill="black"/>
<path d="M115.391 147.107C115.921 146.638 116.499 146.227 117.117 145.882C117.2 145.842 117.277 145.802 117.349 145.761L115.681 146.965C115.681 146.965 115.591 147.083 115.461 147.3L115.408 147.392L115.352 147.488L115.229 147.729C115.187 147.644 115.147 147.549 115.109 147.459C115.097 147.431 115.086 147.404 115.075 147.377C115.179 147.283 115.285 147.192 115.391 147.107Z" fill="url(#paint0_linear_103_464)"/>
<path d="M169.675 187.19C169.675 187.19 173.297 188.846 171.822 190.599C170.346 192.352 159.507 193.52 157.47 193.226C155.432 192.933 134.133 186.022 134.133 186.022C134.133 186.022 132.571 183.978 134.329 183.783C136.086 183.588 143.504 184.56 143.504 184.56L153.659 185.145L169.675 187.19Z" fill="#535184"/>
<path d="M134.307 150.58L139.066 161.02L145.435 154.813L140.749 147.293L134.307 150.58Z" fill="#FFB9B9"/>
<path opacity="0.05" d="M145.435 154.813L140.621 159.506L139.066 161.02L138.136 158.986L135.475 153.147L134.307 150.58L135.98 149.725L140.749 147.293L142.533 150.156L143.769 152.138L145.435 154.813Z" fill="black"/>
<path d="M128.277 113.967C126.597 115.296 125.031 116.761 123.593 118.347C123.501 118.448 123.414 118.547 123.33 118.646C122.514 119.575 121.774 120.569 121.118 121.617C120.626 122.404 120.208 123.234 119.868 124.097C118.89 126.635 119.29 128.087 119.29 128.087C116.514 125.729 113.86 123.232 111.339 120.603C107.268 116.286 103.917 111.569 107.867 110.851C112.745 109.968 116.801 106.953 119.047 104.942C119.718 104.353 120.354 103.725 120.952 103.062C120.952 103.062 138.822 105.498 128.277 113.967Z" fill="#FFB9B9"/>
<path d="M110.946 167.23L121.635 164.454C121.635 164.454 131.293 160.804 131.887 160.729C132.481 160.654 152.099 155.624 152.099 155.624L142.798 176.212L120.756 183.734L107.65 182.492L110.946 167.23Z" fill="#FFB9B9"/>
<path opacity="0.1" d="M110.946 167.23L121.635 164.454C121.635 164.454 131.293 160.804 131.887 160.729C132.481 160.654 152.099 155.624 152.099 155.624L142.798 176.212L120.756 183.734L107.65 182.492L110.946 167.23Z" fill="black"/>
<path d="M112.699 115.32C112.409 113.717 111.859 110.146 112.457 109.098C112.457 109.098 111.579 109.002 108.353 109.58C105.127 110.158 99.9598 109.874 99.9598 109.874C99.9598 109.874 92.2477 108.412 88.9277 116.787C88.9277 116.787 86.9744 126.329 84.9244 128.86C82.8745 131.391 82.6789 134.996 82.6789 134.996C82.6789 134.996 81.6044 139.279 80.5299 140.252C79.4555 141.225 80.047 142.686 80.047 142.686C80.047 142.686 78.777 143.953 78.876 144.733C78.975 145.513 78.1927 147.264 78.1927 147.264C78.1927 147.264 77.4152 149.123 77.7967 149.995C78.1782 150.866 76.3311 153.987 76.3311 153.987L109.432 160.9L118.221 133.344L118.417 121.856C118.417 121.856 113.587 121.408 112.914 116.743C112.844 116.267 112.783 115.792 112.699 115.32Z" fill="#787C9C"/>
<path opacity="0.1" d="M85.3156 143.276L84.1421 145.419C84.1421 145.419 91.1732 147.464 93.7109 146.782C96.2486 146.101 104.458 140.551 104.458 140.551L85.3156 143.276Z" fill="black"/>
<path d="M90.695 154.661C90.695 154.661 83.9585 153.298 82.884 153.298C81.8095 153.298 76.5362 152.817 76.5362 152.817C76.5362 152.817 74.8774 156.323 74.9739 158.073C75.0705 159.824 73.7932 162.848 73.7932 162.848C73.7932 162.848 68.6189 178.136 84.142 181.543C99.6651 184.95 108.845 185.341 108.845 185.341C108.845 185.341 113.916 171.028 114.898 169.08C115.881 167.132 115.582 165.769 110.994 166.159C106.406 166.549 90.695 154.661 90.695 154.661Z" fill="#4C4C78"/>
<path d="M144.117 152.113L143.769 152.14C143.371 152.169 142.661 152.222 141.806 152.296C140.486 152.417 138.82 152.585 137.405 152.79C136.659 152.901 135.99 153.019 135.473 153.147C134.843 153.301 134.452 153.469 134.452 153.647C134.452 154.09 130.588 146.248 126.771 138.393C126.648 138.135 126.53 137.88 126.399 137.625C126.269 137.37 126.158 137.124 126.032 136.876C125.822 136.438 125.612 136.002 125.402 135.573C124.465 133.647 123.56 131.767 122.746 130.086L122.302 129.171L119.863 124.097L119.358 123.047C119.358 123.047 119.977 122.308 120.776 121.388C121.575 120.469 122.558 119.373 123.289 118.643H123.318C123.929 118.783 133.394 120.962 134.952 124.285C135.411 125.37 135.802 126.482 136.123 127.615C136.241 128.003 136.364 128.412 136.485 128.836C136.968 130.553 137.501 132.511 137.991 134.42C138.088 134.793 138.182 135.167 138.276 135.53C139.319 139.657 140.15 143.272 140.15 143.272L142.673 148.909L144.117 152.113Z" fill="#787C9C"/>
<path d="M151.001 151.675C151.001 151.675 148.828 159.092 147.862 161.96C147.751 162.342 147.604 162.713 147.423 163.067C147.159 163.33 145.336 164.616 143.463 164.878C143.173 164.92 142.881 164.933 142.589 164.917C142.157 164.897 141.734 164.79 141.345 164.601C139.001 163.431 137.39 160.366 137.39 160.366L138.146 158.986L139.319 156.845L141.816 152.297L142.077 151.815C142.27 151.271 142.425 150.716 142.543 150.151C142.63 149.742 142.681 149.326 142.695 148.909C142.742 148.419 142.628 147.926 142.369 147.507C141.49 146.339 141.418 125.963 146.691 128.884C151.964 131.805 151.001 151.675 151.001 151.675Z" fill="#FFB9B9"/>
<path d="M151.814 155.851L152.099 155.61C152.099 155.61 157.37 155.465 158.469 157.071C159.568 158.678 164.109 162.769 161.253 167.368C159.549 170.12 157.183 172.405 154.369 174.014C154.369 174.014 139.283 182.485 136.501 183.289C133.72 184.093 123.76 185.114 123.76 185.114C123.76 185.114 120.621 187.378 119.365 187.45C118.11 187.522 114.459 190.226 114.459 190.226C114.459 190.226 110.432 191.541 113.435 186.133C116.439 180.724 116.816 179.631 116.816 179.631C116.816 179.631 119.672 181.24 121.283 179.631C122.893 178.023 132.706 171.892 132.706 171.892C132.706 171.892 138.986 166.864 140.237 166.219C141.487 165.574 149.39 161.107 149.39 161.107C149.365 160.105 149.571 159.11 149.991 158.198C150.411 157.287 151.035 156.484 151.814 155.851Z" fill="#FFB9B9"/>
<path opacity="0.05" d="M161.253 167.375C159.549 170.127 157.183 172.412 154.369 174.021C154.369 174.021 153.526 174.502 152.196 175.225C147.949 177.577 138.764 182.6 136.55 183.277L136.499 183.291C133.717 184.093 123.757 185.117 123.757 185.117C123.757 185.117 120.618 187.38 119.363 187.452C118.107 187.525 114.457 190.229 114.457 190.229C114.457 190.229 110.429 191.543 113.433 186.135C116.436 180.727 116.813 179.634 116.813 179.634C116.813 179.634 119.67 181.242 121.28 179.634C122.891 178.025 132.703 171.895 132.703 171.895C132.703 171.895 133.16 171.529 133.855 170.977C135.731 169.496 139.338 166.677 140.246 166.198C140.599 166.01 141.49 165.516 142.588 164.907C142.808 164.784 143.038 164.654 143.272 164.526C144.824 163.66 146.616 162.651 147.859 161.95L149.397 161.086C149.397 161.035 149.397 160.984 149.397 160.934C149.398 159.958 149.616 158.995 150.036 158.113C150.456 157.232 151.068 156.455 151.826 155.839L152.111 155.598C152.111 155.598 157.382 155.453 158.481 157.059C159.58 158.666 164.109 162.776 161.253 167.375Z" fill="black"/>
<path d="M107.838 187.792L110.977 191.726C110.977 191.726 113.875 191.539 116.084 184.06C118.293 176.581 115.435 175.829 115.435 175.829C115.435 175.829 111.284 178.206 110.028 180.067C108.773 181.929 107.838 187.792 107.838 187.792Z" fill="#535184"/>
<path d="M107.652 187.409L110.736 191.146C110.736 191.146 113.372 190.963 115.495 183.857C117.617 176.752 114.884 176.044 114.884 176.044C114.884 176.044 110.934 178.305 109.736 180.072C108.538 181.839 107.652 187.409 107.652 187.409Z" fill="#535184"/>
<path opacity="0.15" d="M107.652 187.409L110.736 191.146C110.736 191.146 113.372 190.963 115.495 183.857C117.617 176.752 114.884 176.044 114.884 176.044C114.884 176.044 110.934 178.305 109.736 180.072C108.538 181.839 107.652 187.409 107.652 187.409Z" fill="black"/>
<path d="M115.855 189.456L115.698 189.215C116.231 188.842 117.492 183.535 118.163 180.26L118.45 180.318C118.209 181.55 117.055 187 116.231 188.866L117.658 187.929C117.885 187.496 120.261 182.839 118.96 180.556L118.856 180.371L120.481 180.13L120.532 180.214C120.65 180.409 123.403 185.006 121.679 186.675L121.476 186.465C122.924 185.071 120.693 181.076 120.329 180.445L119.312 180.594C120.52 183.169 118.008 187.893 117.9 188.098L117.881 188.129L115.855 189.46V189.456Z" fill="#535184"/>
<path opacity="0.1" d="M104.941 118.959C105.233 119.397 105.525 123.12 106.631 123.194C107.737 123.269 104.941 118.959 104.941 118.959Z" fill="black"/>
<path opacity="0.1" d="M98.4966 111.583C98.4966 111.583 101.635 111.947 101.865 114.796C102.094 117.644 98.4966 111.583 98.4966 111.583Z" fill="black"/>
<path opacity="0.1" d="M84.5813 164.235C84.5813 164.235 78.4315 167.231 78.5788 168.252C78.7261 169.272 84.5813 164.235 84.5813 164.235Z" fill="black"/>
<path opacity="0.1" d="M77.1855 163.869C77.1855 163.869 80.2617 160.585 82.4589 160.876L77.1855 163.869Z" fill="black"/>
<path opacity="0.1" d="M136.572 139.25C136.572 139.25 135.693 145.383 137.011 145.822C138.329 146.26 136.572 139.25 136.572 139.25Z" fill="black"/>
<path d="M84.8279 169.858C84.8279 169.858 82.3868 180.375 84.6323 181.348C86.833 182.614 89.1772 183.613 91.6152 184.324C98.9747 186.492 106.904 183.082 110.082 176.116C110.417 175.428 110.661 174.699 110.806 173.949C111.39 170.248 112.465 164.502 112.465 164.502C112.465 164.502 114.614 154.182 114.418 151.553C114.324 149.93 114.771 148.321 115.688 146.977L129.451 137.045L125.643 126.626C125.643 126.626 115.782 112.703 106.897 125.554C98.0113 138.405 90.787 153.402 90.787 153.402C90.787 153.402 85.0211 162.068 84.8279 169.858Z" fill="#FFB9B9"/>
<path opacity="0.1" d="M129.448 136.753L126.771 138.68L125.402 135.86C123.006 130.912 120.814 126.368 119.87 124.384C118.892 126.922 119.293 128.374 119.293 128.374C116.516 126.016 113.862 123.518 111.342 120.89C114.831 118.891 118.197 119.97 120.783 121.675C120.899 121.75 121.01 121.824 121.121 121.916C122.847 123.15 124.372 124.643 125.641 126.341L129.448 136.753Z" fill="black"/>
<path d="M84.8279 169.858C84.8279 169.858 82.3868 180.375 84.6323 181.348C86.833 182.614 89.1772 183.613 91.6152 184.324C98.9747 186.492 106.904 183.082 110.082 176.116C110.417 175.428 110.661 174.699 110.806 173.949C111.39 170.248 112.465 164.502 112.465 164.502C112.465 164.502 114.614 154.182 114.418 151.553C114.324 149.93 114.771 148.321 115.688 146.977L129.451 137.045L125.643 126.626C125.643 126.626 115.782 112.703 106.897 125.554C98.0113 138.405 90.787 153.402 90.787 153.402C90.787 153.402 85.0211 162.068 84.8279 169.858Z" fill="#FFB9B9"/>
<path opacity="0.1" d="M136.552 183.282C136.671 181.526 136.671 177.65 136.671 177.65C136.671 177.65 136.574 174.825 134.232 171.514C134.111 171.348 133.99 171.17 133.846 170.987C135.722 169.506 139.329 166.686 140.237 166.207C140.589 166.019 141.48 165.526 142.579 164.916C142.147 164.897 141.724 164.79 141.336 164.601C138.991 163.431 137.38 160.365 137.38 160.365L138.136 158.986L135.48 153.147C134.85 153.301 134.459 153.469 134.459 153.647C134.459 154.143 129.61 144.256 125.409 135.573C126.375 134.798 127.012 134.317 127.012 134.317L130.04 137.045L135.987 149.727L137.071 152.039C137.071 152.039 137.192 152.311 137.412 152.79C137.791 153.623 138.465 155.08 139.317 156.845C139.72 157.673 140.16 158.574 140.628 159.494C141.444 161.126 142.35 162.865 143.27 164.524C143.335 164.637 143.395 164.765 143.46 164.866C145.503 168.524 147.616 171.748 149.081 172.571C149.081 172.571 150.501 173.792 152.206 175.22C147.951 177.582 138.766 182.605 136.552 183.282Z" fill="black"/>
<path d="M126.43 134.319L129.456 137.045L136.487 152.039C136.487 152.039 144.696 170.443 148.497 172.586C148.497 172.586 155.429 178.524 156.991 179.499C158.554 180.474 162.649 183.491 162.649 183.491C162.649 183.491 174.854 186.995 169.385 188.748C163.916 190.501 156.499 189.138 156.499 189.138C156.499 189.138 148.289 187.385 145.952 186.022C145.952 186.022 144.585 186.118 143.61 186.118C142.634 186.118 135.7 184.95 135.883 183.978C136.067 183.005 136.079 177.647 136.079 177.647C136.079 177.647 135.982 174.825 133.638 171.514C131.293 168.203 125.242 161.485 125.242 161.485C125.242 161.485 114.891 149.205 115.186 145.906C115.48 142.607 126.43 134.319 126.43 134.319Z" fill="#FFB9B9"/>
<path d="M126.43 134.319L129.456 137.045L136.487 152.039C136.487 152.039 144.696 170.443 148.497 172.586C148.497 172.586 155.429 178.524 156.991 179.499C158.554 180.474 162.649 183.491 162.649 183.491C162.649 183.491 174.854 186.995 169.385 188.748C163.916 190.501 156.499 189.138 156.499 189.138C156.499 189.138 148.289 187.385 145.952 186.022C145.952 186.022 144.585 186.118 143.61 186.118C142.634 186.118 135.7 184.95 135.883 183.978C136.067 183.005 136.079 177.647 136.079 177.647C136.079 177.647 135.982 174.825 133.638 171.514C131.293 168.203 125.242 161.485 125.242 161.485C125.242 161.485 114.891 149.205 115.186 145.906C115.48 142.607 126.43 134.319 126.43 134.319Z" fill="#FFB9B9"/>
<path opacity="0.1" d="M155.748 189.687L155.482 189.562C156.292 188.081 157.407 186.787 158.754 185.767C160.1 184.746 161.648 184.022 163.296 183.641L163.361 183.925C161.756 184.295 160.248 185 158.936 185.993C157.624 186.986 156.537 188.245 155.748 189.687Z" fill="black"/>
<path opacity="0.1" d="M150.472 187.936L150.211 187.806C151.976 184.284 160.203 181.892 160.553 181.786L160.635 182.068C160.551 182.097 152.182 184.519 150.472 187.936Z" fill="black"/>
<path opacity="0.1" d="M154.775 188.7L154.5 188.601C154.792 187.777 157.397 180.53 158.814 180.327L158.858 180.616C157.919 180.751 155.902 185.524 154.775 188.7Z" fill="black"/>
<path d="M155.453 189.687L155.188 189.562C155.997 188.081 157.112 186.787 158.459 185.767C159.805 184.746 161.353 184.022 163.001 183.641L163.066 183.925C161.462 184.296 159.954 185.001 158.642 185.994C157.33 186.987 156.243 188.246 155.453 189.687Z" fill="#535184"/>
<path d="M150.18 187.936L149.917 187.806C151.684 184.284 159.91 181.892 160.26 181.786L160.34 182.068C160.256 182.097 151.889 184.519 150.18 187.936Z" fill="#535184"/>
<path d="M154.483 188.7L154.198 188.613C154.49 187.789 157.095 180.541 158.513 180.339L158.554 180.628C157.626 180.751 155.61 185.523 154.483 188.7Z" fill="#535184"/>
<path opacity="0.1" d="M149.415 187.409C149.236 186.241 152.153 178.259 152.812 176.477C148.27 178.569 136.335 180.982 136.212 181.006L136.156 180.72C136.282 180.696 148.779 178.167 153.01 176.06L153.343 175.894L153.213 176.241C152.184 178.993 149.55 186.354 149.704 187.366L149.415 187.409Z" fill="black"/>
<path d="M149.127 187.409C148.948 186.241 151.865 178.259 152.524 176.477C147.98 178.569 136.047 180.982 135.924 181.006L135.866 180.72C135.992 180.696 148.492 178.167 152.722 176.06L153.055 175.894L152.925 176.241C151.896 178.993 149.262 186.354 149.417 187.366L149.127 187.409Z" fill="#535184"/>
<path opacity="0.1" d="M138.288 135.535C133.51 136.515 127.201 136.703 127.201 136.703L126.399 137.625L125.737 138.384C125.737 138.384 119.733 145.752 117.608 146.27C115.483 146.787 109.188 153.939 109.188 153.939C109.188 153.939 104.062 157.37 99.53 160C94.9979 162.629 91.7697 156.202 91.7697 156.202L90.1567 141.451L100.112 139.551L100.699 143.862C100.699 143.862 107.218 141.157 108.167 140.938C109.116 140.719 120.322 131.08 121.205 130.861C121.751 130.66 122.273 130.4 122.763 130.086C123.871 129.424 125.088 128.598 125.088 128.598C125.088 128.598 131.231 128.005 136.506 128.839C136.989 130.555 137.523 132.513 138.013 134.423C138.1 134.798 138.194 135.171 138.288 135.535Z" fill="black"/>
<path opacity="0.1" d="M138.003 134.435C133.264 135.364 127.201 135.545 127.201 135.545L126.032 136.886L125.737 137.225C125.737 137.225 119.733 144.601 117.608 145.111C115.483 145.622 109.188 152.781 109.188 152.781C109.188 152.781 104.062 156.212 99.53 158.841C94.9979 161.471 91.7697 155.044 91.7697 155.044L90.1567 140.293L100.112 138.384L100.699 142.691C100.699 142.691 107.218 139.99 108.167 139.771C109.116 139.551 120.322 129.912 121.205 129.693C121.594 129.56 121.968 129.385 122.318 129.171L122.584 129.019C124.496 127.898 126.664 127.285 128.881 127.237C131.309 127.172 133.737 127.301 136.144 127.62C136.733 129.587 137.392 132.046 138.003 134.435Z" fill="black"/>
<path opacity="0.1" d="M149.207 185.668L151.771 187.019L150.525 188.808L148.367 187.787L149.207 185.668Z" fill="black"/>
<path d="M149.207 185.377L151.771 186.728L150.525 188.517L148.367 187.493L149.207 185.377Z" fill="#535184"/>
<path opacity="0.1" d="M154.369 187.568L157.117 188.37L156.091 190.233L153.493 189.174L154.369 187.568Z" fill="black"/>
<path d="M154.369 187.274L157.117 188.078L156.091 189.94L153.493 188.88L154.369 187.274Z" fill="#535184"/>
<path opacity="0.1" d="M99.7643 144.931C99.7643 144.931 94.7855 147.95 95.1767 150.093L99.7643 144.931Z" fill="black"/>
<path opacity="0.1" d="M143.835 134.212L137.462 140.664L141.948 145.071L148.321 138.62L143.835 134.212Z" fill="black"/>
<path d="M144.251 134.622L137.878 141.074L142.364 145.481L148.737 139.029L144.251 134.622Z" fill="#504F60"/>
<path opacity="0.1" d="M147.641 137.956L141.269 144.407L142.364 145.484L148.737 139.032L147.641 137.956Z" fill="black"/>
<path d="M148.931 137.48L140.709 145.803L145.822 150.826L154.043 142.503L148.931 137.48Z" fill="#504F60"/>
<path opacity="0.1" d="M153.053 141.531L144.832 149.854L145.822 150.827L154.044 142.504L153.053 141.531Z" fill="black"/>
<path d="M154.345 141.054L144.169 151.355L149.177 156.274L159.352 145.973L154.345 141.054Z" fill="#504F60"/>
<path opacity="0.1" d="M151.414 164.55C151.027 164.818 150.281 164.481 149.965 164.278C148.458 162.261 148.367 155.757 148.367 155.757L148.504 155.617L148.086 155.208L158.261 144.907L158.679 145.316L158.783 145.212C160.719 145.827 162.729 146.178 164.759 146.257C165.884 146.289 166.261 146.094 166.707 146.404C167.125 147.107 167.364 147.9 167.403 148.716C167.403 150.052 163.385 150.365 161.057 150.527C159.085 150.659 160.046 154.078 160.386 155.126C160.466 155.364 160.497 155.615 160.475 155.865C160.265 158.054 157.798 158.196 155.699 157.647C153.468 157.067 152.466 159.997 152.466 159.997C152.466 159.997 154.087 162.696 151.414 164.55Z" fill="black"/>
<path d="M151.832 164.96C151.262 165.355 150.383 164.825 149.97 164.278C148.463 162.26 148.372 155.757 148.372 155.757L158.786 145.21C160.721 145.824 162.732 146.176 164.762 146.255C165.887 146.286 166.263 146.091 166.71 146.402C167.519 146.958 167.816 148.263 167.823 149.123C167.823 150.462 163.805 150.775 161.478 150.934C159.505 151.068 160.466 154.485 160.806 155.533C160.888 155.77 160.92 156.022 160.898 156.272C160.691 158.463 158.223 158.603 156.125 158.054C153.894 157.476 152.892 160.404 152.892 160.404C152.892 160.404 154.505 163.108 151.832 164.96Z" fill="#504F60"/>
<path opacity="0.1" d="M151.832 164.96C151.262 165.355 150.383 164.825 149.97 164.278C148.463 162.26 148.372 155.757 148.372 155.757L158.786 145.21C160.721 145.824 162.732 146.176 164.762 146.255C165.887 146.286 166.263 146.091 166.71 146.402C167.519 146.958 167.816 148.263 167.823 149.123C167.823 150.462 163.805 150.775 161.478 150.934C159.505 151.068 160.466 154.485 160.806 155.533C160.888 155.77 160.92 156.022 160.898 156.272C160.691 158.463 158.223 158.603 156.125 158.054C153.894 157.476 152.892 160.404 152.892 160.404C152.892 160.404 154.505 163.108 151.832 164.96Z" fill="black"/>
<path d="M151.175 164.314C150.615 164.719 150.166 164.555 149.806 164.062C148.48 162.224 148.372 155.757 148.372 155.757L158.786 145.21C160.614 145.698 162.502 145.929 164.395 145.896C165.459 145.867 166.121 146.026 166.531 146.296C167.256 146.778 167.186 147.644 167.147 148.463C167.087 149.734 163.255 150.238 161.041 150.51C159.191 150.734 159.877 153.842 160.157 154.866C160.229 155.113 160.248 155.374 160.213 155.629C159.889 157.697 157.557 157.955 155.601 157.555C153.517 157.12 152.414 159.963 152.414 159.963C152.414 159.963 153.804 162.419 151.175 164.314Z" fill="#504F60"/>
<path d="M144.996 126.996C144.62 127.374 144.11 127.587 143.577 127.591C143.043 127.594 142.53 127.388 142.149 127.016L142.096 126.963C141.717 126.589 141.501 126.081 141.497 125.549C141.493 125.017 141.701 124.506 142.074 124.126C142.116 124.083 142.162 124.043 142.21 124.006C142.592 123.682 143.082 123.513 143.583 123.532C144.084 123.55 144.561 123.754 144.919 124.105L144.974 124.158C145.33 124.51 145.542 124.982 145.568 125.481C145.594 125.981 145.432 126.472 145.114 126.859C145.079 126.908 145.039 126.954 144.996 126.996Z" fill="#504F60"/>
<path opacity="0.1" d="M144.996 126.997C144.62 127.374 144.11 127.587 143.577 127.591C143.043 127.594 142.53 127.388 142.149 127.016L142.096 126.963C141.717 126.589 141.501 126.081 141.497 125.549C141.493 125.017 141.701 124.506 142.074 124.126C142.116 124.083 142.162 124.043 142.21 124.006L145.107 126.859C145.074 126.908 145.037 126.954 144.996 126.997Z" fill="black"/>
<path opacity="0.1" d="M144.252 134.622L137.879 141.074L138.713 141.893L145.086 135.442L144.252 134.622Z" fill="black"/>
<path d="M141.548 123.771L147.396 129.516C147.818 129.931 148.058 130.495 148.062 131.086C148.067 131.677 147.836 132.245 147.42 132.666L137.065 143.149L128.035 134.277L138.39 123.794C138.805 123.373 139.372 123.135 139.964 123.13C140.556 123.126 141.126 123.356 141.548 123.771Z" fill="#504F60"/>
<path opacity="0.1" d="M128.278 113.967C126.598 115.296 125.031 116.761 123.593 118.347C121.52 116.872 119.965 114.782 119.149 112.376C118.334 109.969 118.299 107.367 119.049 104.94C119.72 104.35 120.356 103.722 120.954 103.059C120.954 103.059 138.822 105.499 128.278 113.967Z" fill="black"/>
<path d="M142.726 107.931C142.726 108.022 142.726 108.109 142.726 108.2C142.709 108.906 142.628 109.609 142.485 110.3C142.436 110.541 142.388 110.755 142.325 110.981C142.328 110.992 142.328 111.004 142.325 111.015C141.899 112.642 141.138 114.162 140.089 115.478C139.04 116.794 137.727 117.878 136.234 118.659C134.741 119.44 133.101 119.901 131.419 120.014C129.737 120.126 128.05 119.887 126.465 119.312C124.881 118.736 123.435 117.838 122.219 116.673C121.004 115.508 120.045 114.103 119.406 112.547C118.766 110.992 118.459 109.32 118.504 107.639C118.55 105.959 118.947 104.306 119.67 102.787C119.824 102.46 119.993 102.142 120.177 101.824C120.431 101.391 120.713 100.975 121.022 100.579C121.416 100.062 121.853 99.5792 122.328 99.1343C124.048 97.5172 126.205 96.4379 128.534 96.0297C130.862 95.6215 133.259 95.9023 135.429 96.8373C137.599 97.7724 139.447 99.3207 140.745 101.291C142.042 103.262 142.733 105.568 142.731 107.926L142.726 107.931Z" fill="#FFB9B9"/>
<path d="M127.201 136.12L125.993 137.49L125.737 137.806C125.737 137.806 125.126 138.557 124.226 139.595C122.294 141.812 119.056 145.345 117.608 145.694C115.485 146.205 109.188 153.361 109.188 153.361C109.188 153.361 104.062 156.795 99.5299 159.422C94.9978 162.049 91.7599 155.624 91.7599 155.624L90.147 140.873L100.112 138.969L100.699 143.276C100.699 143.276 107.218 140.575 108.167 140.356C108.966 140.17 117.028 133.317 120.085 131.02C120.427 130.73 120.801 130.482 121.2 130.279C121.673 130.107 122.126 129.887 122.553 129.621L122.586 129.599C124.486 128.483 126.641 127.87 128.845 127.82C133.363 127.733 140.64 128.09 143.091 131.08C146.754 135.535 127.201 136.12 127.201 136.12Z" fill="#FFB9B9"/>
<path opacity="0.1" d="M95.843 116.63C95.1773 116.722 94.5061 116.767 93.8341 116.765C92.0956 116.765 88.4883 117.969 87.4621 127.307C86.1075 139.77 84.1421 145.993 84.1421 145.993C84.1421 145.993 91.4654 143.462 95.6643 144.143C99.8632 144.825 106.308 142 106.308 142C106.308 142 106.013 131.875 105.342 129.831C104.68 127.895 102.526 115.633 95.843 116.63Z" fill="black"/>
<path d="M95.843 116.045C95.1775 116.138 94.5061 116.183 93.8341 116.18C92.0956 116.18 88.4883 117.384 87.4621 126.724C86.0955 139.188 84.1421 145.419 84.1421 145.419C84.1421 145.419 91.4654 142.886 95.6643 143.568C99.8632 144.249 106.308 141.418 106.308 141.418C106.308 141.418 106.013 131.29 105.342 129.245C104.68 127.309 102.526 115.051 95.843 116.045Z" fill="#787C9C"/>
<path opacity="0.1" d="M101.718 131.446C101.718 131.446 98.2771 133.71 99.7403 134.148C101.204 134.586 102.305 133.929 101.718 131.446Z" fill="black"/>
<path opacity="0.1" d="M101.353 135.463C101.353 135.463 91.9797 138.384 95.2828 139.626C98.5859 140.869 101.353 135.463 101.353 135.463Z" fill="black"/>
<path opacity="0.1" d="M136.651 114.377L140.804 113.986C141.833 113.89 142.989 113.722 143.588 112.884C144.187 112.046 143.97 110.897 144.337 109.946C144.59 109.293 145.097 108.776 145.52 108.217C148.024 104.911 147.251 99.6159 143.907 97.1598C143.098 96.5651 142.178 96.1292 141.379 95.5224C139.394 94.0127 138.334 91.6144 136.762 89.6784C135.19 87.7424 132.503 86.1917 130.265 87.2946C128.652 88.0916 127.884 89.977 126.43 91.0365C124.395 92.5222 121.601 92.0647 119.085 91.807C116.485 91.5404 113.864 91.5655 111.269 91.8817C110.872 91.8926 110.487 92.0245 110.166 92.2597C109.833 92.5559 109.739 93.0351 109.714 93.4805C109.601 95.6332 110.702 97.7329 110.482 99.876C110.258 102.079 108.65 103.941 106.759 105.101C105.132 106.1 102.959 107.158 103.053 109.062C103.084 109.729 103.42 110.341 103.717 110.94C105.035 113.656 105.725 116.632 105.737 119.65C105.748 122.667 105.08 125.648 103.782 128.374C103.408 129.142 102.881 129.965 102.041 130.124C103.158 130.422 104.344 130.332 105.404 129.87C106.463 129.409 107.335 128.602 107.875 127.582C108.787 125.742 108.616 123.267 110.241 122.007C111.368 121.136 112.96 121.208 114.259 120.618C116.036 119.814 117.004 117.919 117.842 116.161L120.138 111.33C120.836 109.866 121.72 108.097 123.26 107.355C124.907 106.56 126.945 107.321 128.695 107.444C131.554 107.642 134.55 107.825 133.674 111.615C135.55 110.659 136.407 112.987 136.651 114.377Z" fill="black"/>
<path d="M145.52 107.926C145.095 108.482 144.588 109 144.337 109.655C144.214 110.002 144.133 110.362 144.095 110.729C144.011 111.391 143.96 112.058 143.581 112.592C142.982 113.433 141.826 113.599 140.797 113.695L136.644 114.083C136.402 112.696 135.543 110.367 133.667 111.323C134.543 107.533 131.547 107.35 128.688 107.15C126.94 107.032 124.9 106.269 123.25 107.064C121.715 107.805 120.836 109.573 120.131 111.037C119.365 112.642 118.598 114.252 117.832 115.867C117.014 117.627 116.048 119.52 114.259 120.324C112.96 120.917 111.361 120.842 110.241 121.716C108.616 122.975 108.792 125.448 107.875 127.29C107.335 128.31 106.464 129.117 105.405 129.578C104.345 130.04 103.16 130.129 102.043 129.831C102.884 129.672 103.41 128.848 103.782 128.08C105.082 125.355 105.751 122.374 105.74 119.356C105.729 116.339 105.038 113.362 103.719 110.647C103.422 110.05 103.084 109.443 103.053 108.769C102.963 106.864 105.132 105.809 106.761 104.807C108.654 103.649 110.258 101.788 110.485 99.5847C110.704 97.4416 109.603 95.3419 109.717 93.1892C109.741 92.7438 109.838 92.2646 110.168 91.9684C110.488 91.732 110.874 91.5999 111.272 91.5904C113.866 91.2746 116.488 91.2488 119.088 91.5133C121.601 91.771 124.4 92.2357 126.433 90.7428C127.882 89.6857 128.654 87.7979 130.267 87.0033C132.505 85.9004 135.195 87.4487 136.765 89.3847C138.334 91.3207 139.394 93.719 141.381 95.2311C142.18 95.8379 143.1 96.2738 143.909 96.8685C145.338 97.9551 146.341 99.5052 146.746 101.251C147.307 103.529 146.954 106.048 145.52 107.926Z" fill="#FFEDBA"/>
<g opacity="0.1">
<path d="M110.777 97.6366C110.963 95.8162 110.197 94.0247 110.033 92.2115C109.823 92.5305 109.712 92.904 109.714 93.2855C109.615 95.1588 110.439 96.9913 110.506 98.8502C110.643 98.4574 110.734 98.0502 110.777 97.6366Z" fill="black"/>
<path d="M105.646 121.379C106.495 117.088 105.92 112.638 104.009 108.701C103.79 108.297 103.606 107.875 103.458 107.439C103.172 107.859 103.03 108.36 103.053 108.867C103.084 109.537 103.42 110.146 103.717 110.745C105.324 114.047 105.991 117.725 105.646 121.379Z" fill="black"/>
<path d="M145.812 105.978C145.389 106.536 144.882 107.052 144.631 107.707C144.264 108.658 144.472 109.813 143.88 110.644C143.289 111.475 142.125 111.651 141.099 111.747L136.943 112.137C136.702 110.748 135.842 108.419 133.969 109.375C134.843 105.585 131.849 105.402 128.987 105.205C127.239 105.082 125.201 104.321 123.552 105.116C122.014 105.857 121.138 107.627 120.433 109.091C119.668 110.696 118.902 112.306 118.134 113.921C117.299 115.679 116.328 117.572 114.551 118.378C113.254 118.968 111.653 118.896 110.533 119.768C108.91 121.027 109.084 123.503 108.167 125.342C107.372 126.948 105.617 127.991 103.835 128.061C103.816 128.099 103.801 128.14 103.782 128.179C103.408 128.947 102.881 129.77 102.041 129.929C103.158 130.227 104.344 130.137 105.404 129.675C106.463 129.213 107.335 128.406 107.875 127.386C108.787 125.547 108.616 123.072 110.241 121.812C111.368 120.94 112.96 121.013 114.259 120.423C116.048 119.619 117.014 117.723 117.842 115.966L120.138 111.135C120.836 109.671 121.72 107.902 123.26 107.16C124.907 106.365 126.945 107.126 128.695 107.249C131.554 107.449 134.55 107.629 133.674 111.42C135.55 110.456 136.407 112.792 136.651 114.181L140.804 113.791C141.833 113.695 142.989 113.529 143.588 112.689C144.187 111.848 143.97 110.702 144.337 109.751C144.59 109.098 145.097 108.581 145.52 108.022C146.471 106.731 146.988 105.172 146.995 103.57C146.756 104.44 146.355 105.257 145.812 105.978Z" fill="black"/>
</g>
<path opacity="0.1" d="M145.52 107.926C145.095 108.482 144.588 109 144.337 109.655C144.214 110.002 144.133 110.362 144.095 110.728C143.798 110.469 143.485 110.227 143.158 110.006C141.763 109.055 140.176 108.443 138.602 107.839L131.622 105.135L126.672 103.223C126.056 102.966 125.421 102.756 124.774 102.592L124.571 102.546C123.451 102.332 122.296 102.367 121.191 102.647C120.908 102.717 120.623 102.804 120.338 102.847C120.338 102.737 120.338 102.628 120.319 102.517C120.319 102.339 120.302 102.161 120.3 101.98C121.123 102.094 121.963 102.115 122.736 101.764C123.357 101.482 123.859 100.996 124.373 100.56C125.629 99.4639 127.073 98.6026 128.635 98.017C131.025 97.1478 133.623 97.0394 136.168 97.1093C137.451 97.1123 138.729 97.2593 139.978 97.5475C141.512 97.952 142.924 98.7105 144.325 99.4738C145.213 99.9554 146.143 100.476 146.739 101.268C147.306 103.529 146.954 106.047 145.52 107.926Z" fill="black"/>
<path d="M148.161 104.653C147.63 104.894 148.722 105.113 148.294 105.496C147.683 106.04 148.565 106.662 147.811 106.958C147.633 107.028 148.091 108.508 147.908 108.516C148.301 109.7 144.979 109.72 144.979 111.046C144.979 111.138 144.979 111.225 144.979 111.316C144.454 110.702 143.846 110.163 143.173 109.715C141.78 108.766 140.191 108.152 138.619 107.548L131.631 104.851C129.981 104.209 128.331 103.571 126.679 102.937C126.063 102.681 125.428 102.47 124.781 102.306L124.581 102.262C123.461 102.047 122.306 102.081 121.201 102.361C120.92 102.431 120.636 102.518 120.348 102.563C120.348 102.453 120.348 102.344 120.331 102.233C120.331 102.055 120.314 101.877 120.31 101.694C121.133 101.81 121.973 101.829 122.748 101.48C123.369 101.196 123.869 100.712 124.385 100.276C125.64 99.1788 127.084 98.318 128.647 97.7354C131.037 96.8637 133.635 96.7554 136.18 96.8252C137.462 96.8283 138.739 96.9753 139.988 97.2634C141.524 97.668 142.936 98.4265 144.334 99.1898C145.365 99.7484 146.449 100.358 147.024 101.379C147.212 101.743 147.364 102.124 147.478 102.518C147.693 103.213 147.92 103.931 148.161 104.653Z" fill="#FF849D"/>
<path opacity="0.1" d="M146.575 108.395C144.402 103.001 133.739 103.129 133.63 103.131V102.84C134.077 102.84 144.595 102.708 146.852 108.287L146.575 108.395Z" fill="black"/>
<path opacity="0.1" d="M147.372 105.889C145.959 102.13 137.919 101.795 137.839 101.795V101.501C138.18 101.513 146.155 101.843 147.638 105.785L147.372 105.889Z" fill="black"/>
<path d="M60.5132 187.623C60.5132 187.623 50.9081 187.045 52.0406 193.759C52.0406 193.759 51.816 194.943 52.8929 195.483C52.8929 195.483 52.9098 194.984 53.878 195.153C54.2224 195.211 54.5726 195.228 54.9211 195.203C55.3931 195.173 55.8419 194.988 56.1984 194.679C56.1984 194.679 58.8979 193.566 59.9482 189.164C59.9482 189.164 60.7257 188.201 60.6943 187.96L59.0645 188.649C59.0645 188.649 59.6174 189.815 59.1828 190.785C59.1828 190.785 59.1297 188.692 58.8182 188.741C58.7554 188.741 57.9755 189.145 57.9755 189.145C57.9755 189.145 58.9413 191.177 58.217 192.653C58.217 192.653 58.4898 190.149 57.6858 189.282L56.5437 189.947C56.5437 189.947 57.6568 192.044 56.9034 193.756C56.9034 193.756 57.0966 191.132 56.3046 190.108L55.2712 190.913C55.2712 190.913 56.3167 192.981 55.6793 194.399C55.6793 194.399 55.5948 191.344 55.0467 191.112C55.0467 191.112 54.1412 191.907 54.0036 192.234C54.0036 192.234 54.7279 193.737 54.2764 194.529C54.2764 194.529 54.0036 192.492 53.779 192.483C53.779 192.483 52.8784 193.831 52.7842 194.756C52.7842 194.756 52.8229 193.381 53.5617 192.348C53.0405 192.449 52.5604 192.7 52.1806 193.07C52.1806 193.07 52.3206 192.107 53.7839 192.032C53.7839 192.032 54.5275 191.009 54.7279 190.946C54.7279 190.946 53.2792 190.826 52.3907 191.216C52.3907 191.216 53.1682 190.315 54.9936 190.734L56.0149 189.904C56.0149 189.904 54.1002 189.641 53.2889 189.93C53.2889 189.93 54.2233 189.135 56.2902 189.716L57.4008 189.051C57.4008 189.051 55.7686 188.702 54.7956 188.827C54.7956 188.827 55.8217 188.276 57.7268 188.873L58.5212 188.519C58.5212 188.519 57.326 188.278 56.9759 188.247C56.6258 188.216 56.6065 188.115 56.6065 188.115C57.3637 187.986 58.1418 188.069 58.8544 188.355C58.8544 188.355 60.5422 187.729 60.5132 187.623Z" fill="#6C63FF"/>
<path opacity="0.1" d="M53.8975 197.214C57.6514 197.214 60.6945 196.701 60.6945 196.068C60.6945 195.435 57.6514 194.922 53.8975 194.922C50.1437 194.922 47.1006 195.435 47.1006 196.068C47.1006 196.701 50.1437 197.214 53.8975 197.214Z" fill="#6C63FF"/>
<path d="M46.975 173.219C46.975 173.219 40.4364 172.827 41.2066 177.394C41.1672 177.626 41.2022 177.865 41.3067 178.076C41.4112 178.287 41.5798 178.46 41.7885 178.569C41.7885 178.569 41.8006 178.23 42.4598 178.345C42.6941 178.386 42.9325 178.397 43.1697 178.379C43.4907 178.359 43.7961 178.233 44.0389 178.023C44.0389 178.023 45.8764 177.264 46.5911 174.269C46.5911 174.269 47.1199 173.616 47.0981 173.448L45.9947 173.929C45.9947 173.929 46.3713 174.724 46.0768 175.374C46.0768 175.374 46.0405 173.949 45.8353 173.982C45.7918 173.982 45.2606 174.257 45.2606 174.257C45.2606 174.257 45.9102 175.641 45.42 176.645C45.42 176.645 45.6059 174.943 45.0602 174.358L44.2828 174.811C44.2828 174.811 45.0409 176.239 44.5242 177.404C44.5242 177.404 44.657 175.617 44.1162 174.921L43.4135 175.468C43.4135 175.468 44.1258 176.874 43.6912 177.842C43.6912 177.842 43.6332 175.762 43.2614 175.603C43.2614 175.603 42.6457 176.145 42.5515 176.369C42.5515 176.369 43.0344 177.39 42.735 177.929C42.735 177.929 42.5515 176.542 42.397 176.537C42.397 176.537 41.7837 177.455 41.7209 178.083C41.7513 177.501 41.9336 176.938 42.2497 176.448C41.8961 176.513 41.5695 176.681 41.3105 176.93C41.3105 176.93 41.4046 176.279 42.4018 176.222C42.4018 176.222 42.9089 175.526 43.0441 175.482C43.0441 175.482 42.0541 175.401 41.4529 175.665C41.4529 175.665 41.9817 175.054 43.2252 175.331L43.9206 174.767C43.9206 174.767 42.6167 174.589 42.0638 174.784C42.0638 174.784 42.7012 174.242 44.1065 174.637L44.8647 174.187C44.2822 174.06 43.6856 174.009 43.09 174.035C43.09 174.035 43.7878 173.66 45.0844 174.067L45.6252 173.826C45.6252 173.826 44.8115 173.667 44.5749 173.64C44.3383 173.614 44.3335 173.551 44.3335 173.551C44.8488 173.465 45.3778 173.524 45.8619 173.72C45.8619 173.72 46.9919 173.291 46.975 173.219Z" fill="#6C63FF"/>
<path opacity="0.1" d="M42.472 179.747C45.027 179.747 47.0982 179.398 47.0982 178.967C47.0982 178.536 45.027 178.187 42.472 178.187C39.917 178.187 37.8457 178.536 37.8457 178.967C37.8457 179.398 39.917 179.747 42.472 179.747Z" fill="#6C63FF"/>
<path opacity="0.1" d="M197.691 188.363C205.197 188.363 211.283 187.529 211.283 186.501C211.283 185.473 205.197 184.64 197.691 184.64C190.185 184.64 184.1 185.473 184.1 186.501C184.1 187.529 190.185 188.363 197.691 188.363Z" fill="#6C63FF"/>
<path d="M198.572 167.423C198.572 167.423 200.395 169.797 197.732 173.383C195.069 176.968 192.876 179.997 193.762 182.232C193.762 182.232 197.78 175.572 201.047 175.49C204.314 175.408 202.167 171.415 198.572 167.423Z" fill="#6C63FF"/>
<path opacity="0.1" d="M198.572 167.423C198.732 167.652 198.857 167.902 198.944 168.167C202.134 171.904 203.834 175.391 200.767 175.48C197.913 175.559 194.489 180.652 193.666 181.938C193.693 182.037 193.726 182.136 193.763 182.232C193.763 182.232 197.78 175.572 201.047 175.49C204.314 175.408 202.168 171.415 198.572 167.423Z" fill="black"/>
<path d="M201.957 170.438C201.957 171.273 201.863 171.952 201.747 171.952C201.631 171.952 201.537 171.273 201.537 170.438C201.537 169.602 201.655 169.995 201.779 169.995C201.902 169.995 201.957 169.602 201.957 170.438Z" fill="#FFD037"/>
<path d="M203.121 171.435C202.397 171.837 201.742 172.078 201.687 171.977C201.631 171.875 202.182 171.469 202.918 171.069C203.655 170.669 203.365 170.958 203.421 171.069C203.476 171.18 203.855 171.035 203.121 171.435Z" fill="#FFD037"/>
<path d="M188.967 167.423C188.967 167.423 187.144 169.797 189.808 173.383C192.471 176.968 194.663 179.997 193.775 182.232C193.775 182.232 189.759 175.572 186.492 175.49C183.225 175.408 185.358 171.415 188.967 167.423Z" fill="#6C63FF"/>
<path opacity="0.1" d="M188.967 167.423C188.805 167.645 188.675 167.888 188.581 168.145C185.394 171.883 183.694 175.369 186.76 175.458C189.614 175.538 193.038 180.631 193.862 181.916C193.834 182.016 193.801 182.114 193.763 182.21C193.763 182.21 189.747 175.55 186.48 175.468C183.213 175.386 185.357 171.415 188.967 167.423Z" fill="black"/>
<path d="M185.567 170.438C185.567 171.273 185.662 171.952 185.78 171.952C185.898 171.952 185.99 171.273 185.99 170.438C185.99 169.602 185.872 169.995 185.748 169.995C185.625 169.995 185.567 169.602 185.567 170.438Z" fill="#FFD037"/>
<path d="M184.406 171.435C185.13 171.837 185.785 172.078 185.84 171.977C185.896 171.875 185.343 171.469 184.609 171.069C183.875 170.669 184.162 170.958 184.107 171.069C184.051 171.18 183.672 171.035 184.406 171.435Z" fill="#FFD037"/>
<path d="M186.149 181.909C186.149 181.909 191.239 181.753 192.775 180.662C194.311 179.571 200.608 178.271 200.984 180.019C201.361 181.767 208.636 188.712 202.889 188.757C197.143 188.803 189.535 187.864 188.001 186.927C186.468 185.991 186.149 181.909 186.149 181.909Z" fill="#A8A8A8"/>
<path opacity="0.2" d="M202.993 188.148C197.244 188.196 189.636 187.257 188.105 186.325C186.939 185.617 186.473 183.075 186.318 181.902H186.149C186.149 181.902 186.471 185.995 188.004 186.927C189.537 187.859 197.143 188.796 202.892 188.75C204.551 188.736 205.123 188.148 205.092 187.276C204.862 187.811 204.227 188.131 202.993 188.148Z" fill="black"/>
</g>
<defs>
<linearGradient id="paint0_linear_103_464" x1="122.188" y1="193.205" x2="122.188" y2="85.9605" gradientUnits="userSpaceOnUse">
<stop stop-color="#808080" stop-opacity="0.25"/>
<stop offset="0.54" stop-color="#808080" stop-opacity="0.12"/>
<stop offset="1" stop-color="#808080" stop-opacity="0.1"/>
</linearGradient>
<clipPath id="clip0_103_464">
<rect width="249" height="200" fill="white"/>
</clipPath>
</defs>
</svg>
